<?xml version="1.0" encoding="utf-8"?>
<!-- Generator: Adobe Illustrator 27.9.0, SVG Export Plug-In . SVG Version: 6.00 Build 0)  -->
<svg version="1.1" id="Layer_1" xmlns="http://www.w3.org/2000/svg" xmlns:xlink="http://www.w3.org/1999/xlink" x="0px" y="0px"
	 viewBox="0 0 1200 1200" style="enable-background:new 0 0 1200 1200;" xml:space="preserve">
<style type="text/css">
	.st0{clip-path:url(#SVGID_00000073001835145937536890000004061011109487026323_);}
	.st1{fill:#ABC1D6;}
	.st2{fill:#BDB660;}
</style>
<g id="Graphic_Element">
	<g>
		<defs>
			<path id="SVGID_1_" d="M521.5,75L521.5,75c-3.8,0-7.7,0.6-10.9,0.7c-9,0.5-17.9,0.6-26.2,4.5c-3.7,1.8-5.7,4.3-9,6.3
				c-4,2.5-5,2.4-10.3,2.8c-13.8,1.2-28.1,7-40,13.8c-5.6,3.2-11.7,13.2-17.8,14.3c-6.6,1.2-17.2-8.2-23.5-10.6
				c-37.1-14.2-71.1-3.1-93.1,29.9c-7.7,11.5-12.6,24.7-12.4,38.6c0.1,7.3,4.9,16.1,4.4,22.9c-1,11.7-14.5,8.2-22.5,9.4
				c-8.4,1.3-15.3,4.5-20.9,11.2c-10.1,12.2-11.8,32.9-12.9,48.2c-1.1,15.5-2.8,31.3-14.9,41.6c-13.1,11.2-26,20.2-35,35.2
				c-14.1,23.5-15.1,44.7-14,71.4c0.5,12.2,3.6,23.6,6.5,35.3c2.3,9.5,1.4,8.2-6,13.9s-11.3,11.6-14.9,19.9
				c-3.9,9-6.4,15.8-6.3,25.5c0,5,0.2,9.9,0.5,14.9c0.2,3.3,0.4,6.5,0.7,9.8c-2.1,1.2-4.1,2.4-6.1,3.6c-6.2,7.9-12,14.7-16.3,23.8
				c-4.8,10.2-9.6,23.9-11.3,35.4c-3.3,22.2,5.2,32.5,23.5,42.5c-15.4,18.7-28,43.7-24.9,68.7c1.8,14.5,6.4,26.5,16,37.5
				c4.8,5.5,10,10.8,15.4,15.8c4.1,3.8,15.1,11.7,17.1,17.1c2,5.7-2.8,15.9-1.9,22.6c0.7,5.4,4.4,10.7,4.8,15.9
				c0.4,5-3.9,12.5-4.8,19.4c-1,7-2.9,13.7-3.7,20.7c-2.7,23.5,3.8,40.8,16.7,60c5.9,8.8,10.7,18,17.5,26.1
				c10.1,12,18.6,17.7,33.1,22.9c3.8,1.3,9.8,2.3,13.2,4.1c9.7,5.1,7,26.4,12.1,37c5.5,11.4,9,23.9,17.8,33.4
				c6.7,7.3,15.4,9.8,23.8,14.3c17.7,9.5,36.3,11.6,56.3,9.2c11.6-1.4,31.7-10,41-4.7c3.9,2.2,8.2,8.7,11.7,11.8
				c5,4.6,10.3,9,14.2,14.4c6.2,8.6,11,13.7,21.2,19c12.6,6.6,29.4,15.1,43.4,17.5s32,3.1,45.8-0.5c3.2-0.8,6.3-2,9.3-3.6
				c4.9-2.6,8.4-9.1,12.6-11.2c0.5-0.2,5.4,1.4,7,0.9c3.9-1.4,7.6-3.1,11.1-5.2c6.5-3.6,12.6-7.9,17.2-13.9
				c10.5-13.8,12-30.2,9.9-47c-0.3-2.6-1-5.2-1.4-7.8c-0.4-2.9,0.3-4.6-0.8-7.6c-0.4-1.2-4.2-3.8-4.4-4.8c-1.4-7.4,2.4-19,3.6-26.4
				c2.7-17.6,10.7-33.8,11.2-51.7c0-1.7,0.1-3.5,0.1-5.3c0-7-0.5-14.5-3-20.7c-3.3-8.3-13.8-17.5-13-26.6c0.2-1.1,0.5-2.3,0.9-3.3
				c25.5,8.5,31.1,30,31.1,30c-2.5,6.2-3,13.8-3,20.7c0,1.8,0,3.6,0.1,5.3c0.5,17.9,8.5,34.1,11.2,51.7c1.1,7.3,4.9,19,3.6,26.4
				c-0.2,1.1-4,3.6-4.4,4.8c-1.1,3.1-0.3,4.8-0.8,7.7c-0.4,2.6-1.1,5.2-1.4,7.8c-2.1,16.8-0.6,33.3,9.9,47
				c4.6,6,10.7,10.3,17.2,13.9c3.5,2.1,7.2,3.9,11.1,5.2c1.6,0.5,6.5-1.2,7-0.9c4.2,2.1,7.7,8.6,12.6,11.2c2.9,1.6,6,2.8,9.3,3.6
				c13.8,3.5,31.8,2.9,45.8,0.5s30.8-10.9,43.4-17.5c10.3-5.4,15-10.4,21.2-19c3.9-5.5,9.2-9.9,14.2-14.4c3.5-3.2,7.8-9.6,11.7-11.8
				c9.2-5.2,29.3,3.3,41,4.7c20,2.4,38.6,0.3,56.3-9.2c8.5-4.5,17.1-7,23.8-14.3c8.8-9.5,12.3-22,17.8-33.4
				c5.1-10.6,2.4-31.9,12.1-37c3.4-1.8,9.5-2.8,13.2-4.1c14.6-5.1,23-10.9,33.1-22.9c6.8-8.1,11.6-17.3,17.5-26.1
				c12.9-19.3,19.4-36.5,16.7-60c-0.8-7-2.8-13.7-3.7-20.7c-1-6.8-5.2-14.4-4.8-19.4c0.4-5.2,4.1-10.5,4.8-15.9
				c0.9-6.7-4-16.9-1.9-22.6c2-5.5,13-13.4,17.1-17.1c5.4-5,10.5-10.3,15.3-15.8c9.6-11,14.2-23,16-37.5c3.1-25-9.5-50-24.9-68.7
				c18.2-10,26.7-20.3,23.5-42.5c-1.7-11.5-6.5-25.2-11.3-35.4c-4.3-9-10.1-15.8-16.3-23.8c-2-1.2-4.1-2.4-6.1-3.6
				c0.3-3.3,0.5-6.5,0.7-9.8c0.3-5,0.5-9.9,0.5-14.9c0.1-9.7-2.4-16.5-6.3-25.5c-3.6-8.3-7.6-14.2-14.9-19.9s-8.3-4.4-6-13.9
				c2.8-11.8,6-23.1,6.5-35.3c1.1-26.7,0.2-47.9-14-71.4c-9-15-21.9-24-35-35.2c-12.1-10.3-13.8-26.1-14.9-41.6
				c-1.1-15.3-2.8-36-13-48.2c-5.6-6.7-12.5-9.9-20.9-11.2c-8-1.2-21.6,2.3-22.6-9.4c-0.6-6.9,4.2-15.6,4.4-22.9
				c0.2-13.9-4.7-27.2-12.3-38.7c-22-32.9-56-44.1-93.1-29.9c-6.3,2.4-16.8,11.8-23.5,10.6c-6.2-1.1-12.2-11.1-17.8-14.3
				c-11.9-6.9-26.2-12.7-40-13.8c-5.3-0.5-6.3-0.3-10.3-2.8c-3.3-2-5.3-4.6-9-6.3c-8.3-4-17.2-4-26.2-4.5c-3.2-0.2-7.1-0.7-10.9-0.7
				s-7.5,0.6-10.3,2.7c-8.9,7.1-21.9,9.9-31.2,17.4c-5.4,4.6-9.4,10.6-11.6,17.4c-4.5,14.4-4.8,37.5,0.9,51.9
				c2.5,6.4,6.5,11,4.7,16.9c-1.3,3.9-5.3,8.6-7.4,12.2c-4.1,7.2-9,14.2-12.4,21.7c-2.6,5.5-3.9,11.6-4,17.7c-0.1,5,1.1,10,3.4,14.5
				c3.5,6.7,14.6,21.8,22.2,24c-2.6,1.9-5.1,4-7.4,6.2l-22.1-8.6l-13.9-21.6c2.3-4.5,3.5-9.5,3.4-14.5c-0.1-6.1-1.4-12.1-4-17.7
				c-3.4-7.5-8.2-14.5-12.4-21.7c-2.1-3.6-6.2-8.3-7.4-12.2c-1.9-5.8,2.1-10.4,4.7-16.9c5.7-14.4,5.4-37.5,0.9-51.9
				c-2.2-6.7-6.2-12.7-11.5-17.4c-9.3-7.6-22.3-10.4-31.2-17.4C529,75.6,525.3,75,521.5,75z M617.2,356.6c-1.4,15.1-1,31.3-0.5,46
				c0.5,16.4,11.3,48.4,29.3,52.7c-2.5,7-7,14.1-9.9,21c-3.2,7.5-6,15.1-9.3,22.5c-2.6,6-4.6,12.2-6.1,18.5c-1.3,4.5-2.2,9-2.7,13.7
				c-1.8,20.2-1,40.8-1.1,61.1c-0.1,15.1-3.1,32.4,3.5,46c4.2,8.6,9.2,14.4,15.5,21.1c-14,12.8-25.8,40-21.1,58.8
				c1,4.1,3.5,8.1,6,11.5c5.2,7.2,5.5,7.7,2.5,16c-3.5,9.5-6.4,19.3-8.8,29.1c-3.5,14.4-5.7,24-6,39.4c0,0.4,0,0.8,0,1.2h-16.9
				c0-0.4,0-0.8,0-1.2c-0.3-15.4-2.5-25-6-39.4c-2.4-9.9-5.3-19.6-8.8-29.1c-3-8.3-2.7-8.8,2.5-16c2.5-3.4,4.9-7.4,6-11.5
				c4.6-18.8-7.1-46.1-21.1-58.8c6.2-6.7,11.3-12.5,15.5-21.1c6.6-13.6,3.6-30.9,3.5-46c-0.1-20.2,0.7-40.9-1.1-61.1
				c-0.5-4.6-1.4-9.2-2.7-13.7c-1.5-6.3-3.6-12.5-6.1-18.5c-3.3-7.5-6.1-15-9.3-22.5c-3-6.9-7.4-14-9.9-21
				c18-4.4,37.4-35.6,37.9-52.1c0.5-14.8,10.2-10.9,7.1-26.1L617.2,356.6z"/>
		</defs>
		<clipPath id="SVGID_00000103240922766601657940000008321893167081281159_">
			<use xlink:href="#SVGID_1_"  style="overflow:visible;"/>
		</clipPath>
		<g style="clip-path:url(#SVGID_00000103240922766601657940000008321893167081281159_);">
			<g id="layer1">
				<g>
					<path id="path12083" class="st1" d="M65.7,72l0.9,552c50.7-0.5,116.1-2.5,162.2-2.5h0.5c19.1,0.6,32.5-0.9,40.7-3.3
						s10.3-5,10.8-5.9s0.9-2.2-0.6-6.2s-5.1-9.8-10.1-15.4c-19.5-22.1-25.5-46.8-23.2-67.6s11.5-37.5,22.9-47.9
						c19.4-17.8,42.6-26.2,65-26.7c28.9-0.6,56.6,12.1,74,35.3c14.1,18.9,16.5,41.6,12.9,61.1s-12.4,36.4-26,46.8
						c-6.6,5-10.8,16.1-9.6,21c0.6,2.4,1.3,4,5.3,6s11.9,3.9,24.7,2.9l0.6,0h172.5V408.9c-1.2-15.9,0.7-28.9,6-39.3
						c5.1-10.1,14.3-17.6,25.2-20.5c20.2-4.9,39.7,4.9,51.4,20.4c3.8,5,15.5,12.5,28.7,15s27,0.7,38-7.6
						c27.5-20.6,34.8-62.6,4.7-95.6c-4.6-5.1-16.1-12.1-29.4-13.5s-28.5,1.6-45,16.1c-7.5,6.6-15.5,12.2-24.7,15.6
						s-20.6,4.3-30.5-1.2s-16.4-15.7-20.1-28.5s-5-28.6-4.4-49.3V72H65.7z"/>
					<path id="path12079" class="st1" d="M335.5,477.4c-15.3,0.3-31.5,6.3-45.9,19.5c-5,4.6-12.1,16.1-13.5,29.4s1.5,28.5,16,45
						c6.6,7.5,12.2,15.5,15.6,24.6s4.3,20.6-1.1,30.5s-15.7,16.4-28.5,20.1s-28.6,5.1-49.3,4.4h-0.5c-45.3,0-111.5,2-162.7,2.5
						v478.8h523.5c-1.5-67.9,10.8-151.8,0.7-207.1c-3.2-7.7-5-8.2-5.6-8.3s-4.8,0.4-11,4.1s-13.8,9.7-21.7,15.5
						s-15.7,11.7-25.9,14.8h-0.1h0c-66.8,19.5-128.1-58.1-98.2-119.5h-0.1c19.9-55.6,94-71.5,136.8-32.5l0.4,0.4l0.4,0.4
						c6.7,7.1,11.5,9,13.1,9.3s1.1,0.5,2.9-1.4c3.6-3.8,9-19.3,8.4-36.6V651h-172c-15.9,1.1-28.8-0.7-39.2-6
						c-10.7-5.5-18.1-15.1-20.5-25.2c-4.9-20.2,4.9-39.7,20.4-51.4c5-3.8,12.5-15.6,15-28.8s0.7-27-7.6-38
						c-11.7-15.6-30.2-24.6-49.7-24.1L335.5,477.4z"/>
					<rect x="65.7" y="440.7" class="st1" width="523.5" height="293.5"/>
				</g>
				<g>
					<path id="path12081" class="st2" d="M618.6,72.3v148.4v0.2c-0.6,19.1,1,32.5,3.3,40.7c2.3,8.2,5,10.3,5.9,10.8s2.2,0.9,6.2-0.6
						s9.8-5.1,15.4-10.1c22.1-19.5,46.8-25.5,67.6-23.2s37.5,11.5,48,22.9c40.6,44.4,32.6,108-8.7,139c-18.9,14.1-41.6,16.6-61.1,13
						s-36.4-12.5-46.8-26.1c-5-6.6-16.2-10.8-21-9.6c-2.4,0.6-3.9,1.3-6,5.3s-3.9,11.9-2.9,24.7v0.6v213.2h160.6
						c22.1-0.7,42.9,2.8,57.2,16.3c7.2,6.8,12,18,10.3,29c-1.7,10.6-8,19.9-17.4,29c0,0,0,0.1,0,0.1c-24.5,27-14.1,76.7,20.7,89.2
						l0.9,0.3l0.9,0.5c38,19.7,91.6-21.7,79.5-63.1c-0.9-3-4.9-9.6-10.2-16.8s-11.8-15.3-17.1-24.2s-10.3-19.3-7.8-31.8
						s13.3-22.3,27.7-27.8l1.2-0.5l1.3-0.3c66.9-12.9,141,3.2,202,1c0.1-183.4,0.1-366.9,0-550.5C958.5,72.1,788.5,72.2,618.6,72.3
						L618.6,72.3z"/>
					<path id="rect11854" class="st2" d="M978.4,646.4c-15,0-30.1,1.2-44.9,3.8c-7.7,3.2-8.3,5-8.4,5.6s0.5,4.8,4.2,11
						s9.7,13.9,15.5,21.7s11.7,15.7,14.8,25.9v0.1c19.5,66.7-58,128.1-119.5,98.3c-0.6-0.2-1.2-0.5-1.8-0.8l0,0
						c-54-20.9-69.2-93.7-30.7-136l0.4-0.4l0.4-0.3c7.1-6.7,9.1-11.5,9.3-13.1s0.5-1.1-1.4-2.9c-3.8-3.6-19.3-8.9-36.6-8.3H618.6
						v119.9h0c0.7,22.1-2.8,43-16.3,57.3c-6.8,7.2-18,12-28.9,10.2c-10.7-1.7-20-8-29.1-17.4c-27-24.5-76.7-14.2-89.2,20.7l-0.4,0.9
						l-0.5,0.9c-19.6,37.9,21.6,91.5,63,79.6c0,0,0,0,0,0h0.1c3-0.9,9.6-4.9,16.8-10.2s15.3-11.8,24.2-17.1s19.3-10.3,31.8-7.7
						s22.3,13.3,27.8,27.6l0.5,1.2l0.3,1.3c12.4,64.6-0.8,150.8,0.2,214.2c169.9,0.3,339.8-0.3,509.8,0V652
						C1078.9,654,1024.7,646,978.4,646.4L978.4,646.4z"/>
					<rect x="618.3" y="523.9" class="st2" width="510.1" height="353.5"/>
				</g>
			</g>
		</g>
	</g>
</g>
</svg>
